<?xml version="1.0" standalone="no"?>
<!DOCTYPE svg PUBLIC "-//W3C//DTD SVG 20010904//EN"
 "http://www.w3.org/TR/2001/REC-SVG-20010904/DTD/svg10.dtd">
<svg version="1.0" xmlns="http://www.w3.org/2000/svg"
 width="1082.000000pt" height="1280.000000pt" viewBox="0 0 1082.000000 1280.000000"
 preserveAspectRatio="xMidYMid meet">
<metadata>
Created by potrace 1.15, written by Peter Selinger 2001-2017
</metadata>
<g transform="translate(0.000000,1280.000000) scale(0.100000,-0.100000)"
fill="#000000" stroke="none">
<path d="M5633 12597 c-329 -440 -482 -756 -562 -1167 -16 -85 -33 -184 -37
-219 l-6 -64 -24 29 c-21 25 -24 37 -20 82 8 91 -51 382 -89 438 -46 68 -39
154 34 424 34 125 57 219 101 405 5 21 8 40 7 41 -1 1 -11 4 -23 8 -17 5 -29
-5 -66 -51 -25 -32 -92 -110 -148 -173 -195 -219 -262 -313 -313 -442 -84
-209 -78 -493 19 -842 37 -133 102 -327 134 -398 l17 -39 57 68 c106 127 226
321 226 364 0 8 -15 -19 -34 -58 -41 -84 -111 -191 -189 -286 -51 -62 -57 -66
-66 -48 -15 28 -14 38 2 17 12 -16 19 -10 78 63 77 98 161 234 187 303 17 46
20 48 26 27 7 -22 8 -22 15 -5 5 13 14 -14 29 -85 12 -57 22 -111 21 -119 0
-8 -11 30 -24 85 -13 55 -23 92 -24 83 -1 -9 10 -68 24 -132 36 -167 55 -406
37 -471 -62 -225 -114 -357 -287 -720 -182 -381 -227 -498 -266 -693 -19 -92
-26 -192 -9 -112 5 21 6 3 3 -45 -6 -90 -13 -112 -13 -42 0 65 -13 94 -20 42
-3 -22 -7 39 -9 135 -7 266 -7 365 1 485 8 133 1 126 -12 -11 l-9 -99 5 105
c2 58 13 145 24 194 l20 90 -21 140 c-48 330 -111 521 -232 701 -46 69 -189
219 -259 273 -26 20 -46 38 -43 40 7 7 152 -116 205 -175 196 -218 281 -434
345 -869 14 -99 14 -117 0 -175 -8 -35 -14 -73 -14 -84 0 -11 9 18 20 65 18
81 18 90 3 195 -65 452 -155 671 -364 889 -108 112 -253 227 -245 194 3 -13
21 -92 41 -177 49 -215 93 -483 103 -631 l8 -125 3 90 3 90 8 -120 c4 -66 5
-122 3 -124 -2 -2 -5 11 -5 30 -1 32 -2 31 -10 -11 -4 -25 -8 -68 -8 -96 -1
-80 -29 -221 -58 -293 -38 -97 -102 -182 -173 -229 -33 -22 -63 -42 -68 -44
-13 -5 -165 -300 -215 -419 -88 -207 -152 -439 -176 -641 -6 -49 -16 -127 -22
-175 -5 -48 -19 -123 -29 -167 -11 -45 -29 -155 -41 -246 -33 -259 -19 -521
40 -735 11 -38 19 -71 17 -72 -5 -6 -160 100 -200 138 -40 36 -48 40 -63 28
-10 -7 -19 -14 -21 -15 -1 0 14 -48 34 -105 177 -511 426 -973 698 -1298 38
-47 65 -82 59 -78 -16 10 -195 -92 -186 -106 3 -6 1 -7 -5 -3 -15 9 -75 -22
-67 -34 4 -6 -1 -7 -11 -3 -13 5 -15 3 -9 -7 5 -9 4 -11 -3 -6 -15 9 -54 -12
-47 -24 4 -6 -1 -7 -11 -3 -12 4 -15 3 -10 -5 5 -8 1 -10 -10 -5 -11 4 -15 2
-11 -4 4 -6 -1 -10 -11 -9 -9 0 -16 -4 -15 -11 2 -8 -4 -10 -14 -6 -11 4 -14
3 -9 -5 4 -7 2 -10 -6 -7 -8 3 -22 -2 -33 -11 -11 -8 -14 -12 -6 -8 9 5 12 3
7 -5 -4 -6 -11 -9 -16 -6 -10 6 -70 -21 -70 -31 0 -3 5 -2 10 1 6 3 10 4 10 1
0 -3 -10 -10 -21 -17 -16 -8 -20 -8 -14 1 4 7 -6 5 -24 -4 -17 -9 -31 -19 -31
-22 0 -3 4 -2 10 1 5 3 10 4 10 1 0 -3 -10 -10 -21 -17 -16 -8 -20 -8 -14 1 4
7 -6 5 -24 -4 -17 -9 -31 -19 -31 -22 0 -3 5 -2 10 1 6 3 10 4 10 1 0 -3 -14
-13 -31 -22 -17 -8 -28 -11 -25 -5 4 7 1 8 -8 5 -9 -3 -13 -11 -9 -16 4 -7 -3
-9 -20 -6 -20 4 -28 0 -36 -19 -7 -15 -7 -22 -1 -18 6 4 5 -4 -1 -19 -7 -14
-16 -23 -20 -20 -5 3 -6 -2 -3 -10 3 -8 -3 -23 -14 -34 -11 -11 -18 -23 -15
-26 4 -3 1 -6 -5 -6 -7 0 -11 -3 -10 -8 5 -14 -24 -72 -33 -66 -5 3 -6 -2 -3
-10 4 -9 -1 -18 -10 -22 -9 -3 -14 -10 -11 -15 3 -4 12 -6 19 -3 8 3 17 0 22
-7 5 -8 3 -10 -6 -4 -9 5 -11 4 -6 -4 4 -6 12 -9 17 -6 5 4 21 -3 34 -14 14
-10 22 -21 18 -24 -9 -5 -918 -256 -998 -276 -75 -18 -131 -50 -180 -102 -39
-41 -96 -136 -95 -156 1 -4 13 15 27 42 36 70 78 120 128 155 24 17 47 30 51
30 4 0 -14 -15 -40 -34 -129 -92 -193 -245 -183 -441 6 -125 25 -195 83 -314
37 -75 62 -110 123 -171 102 -103 179 -141 299 -149 l87 -6 -65 -6 -65 -6 75
2 c51 2 91 9 125 24 61 27 156 91 150 101 -3 4 3 14 13 21 15 13 16 12 3 -3
-7 -10 -9 -18 -3 -18 13 0 33 25 26 32 -3 3 10 16 28 28 l33 22 -30 -26 c-16
-14 -26 -26 -22 -26 14 0 66 43 62 50 -3 4 3 14 13 21 15 13 16 12 3 -3 -7
-10 -9 -18 -3 -18 11 0 30 21 30 33 0 5 4 12 8 15 4 4 4 1 -1 -7 -5 -9 -3 -12
6 -9 8 3 13 10 12 16 -1 5 5 16 15 24 15 12 16 11 3 -4 -7 -10 -9 -18 -3 -18
12 0 34 25 27 32 -3 3 3 11 12 19 16 13 17 12 4 -3 -21 -28 -3 -21 50 18 27
20 47 40 44 44 -3 5 0 12 6 16 8 4 9 3 5 -4 -4 -7 -4 -12 1 -12 4 1 192 133
416 295 l409 295 46 -36 c26 -19 48 -30 50 -24 2 6 18 17 35 26 28 13 29 13
12 0 -11 -8 -27 -22 -36 -30 -14 -14 -18 -14 -39 1 l-23 16 23 -31 c12 -16 28
-54 36 -84 11 -44 13 -47 11 -17 0 26 10 52 42 102 24 37 46 67 49 67 2 0 -2
-10 -10 -22 -60 -94 -69 -117 -73 -194 -3 -62 -7 -82 -22 -94 -11 -8 -160
-136 -332 -285 -173 -148 -334 -282 -360 -296 -25 -14 -45 -30 -44 -36 1 -6
-5 -17 -15 -25 -16 -12 -16 -11 -2 6 13 17 13 19 0 14 -25 -8 -89 -99 -107
-153 -11 -30 -18 -80 -18 -125 0 -79 21 -184 35 -175 5 3 6 -5 2 -17 -4 -16
-2 -19 8 -13 8 5 11 4 7 -3 -10 -15 3 -43 16 -35 6 3 7 1 3 -5 -9 -14 22 -75
34 -67 5 3 12 0 16 -6 4 -8 3 -9 -4 -5 -7 4 -12 3 -12 -3 0 -14 150 -171 163
-171 7 0 -11 20 -39 44 -28 25 -63 62 -79 83 -16 21 7 2 50 -42 44 -44 80 -84
80 -88 0 -18 114 -79 193 -104 70 -22 95 -25 175 -21 94 4 196 36 183 57 -4 5
-1 13 5 17 8 4 9 3 5 -4 -11 -18 10 -14 25 5 12 15 12 16 -1 8 -8 -4 -4 4 9
18 14 15 27 25 29 22 7 -6 32 15 32 27 0 5 -6 6 -12 2 -8 -4 -10 -3 -5 2 5 5
14 9 20 9 7 0 21 27 33 60 15 42 100 175 275 431 239 348 311 449 293 414 -4
-8 -20 -34 -36 -57 -15 -23 -28 -45 -28 -50 0 -4 4 -2 9 6 7 11 14 10 39 -8
17 -11 34 -21 39 -21 4 0 19 -9 33 -20 14 -11 33 -20 43 -20 9 0 17 -4 17 -10
0 -5 4 -10 10 -10 5 0 40 -14 77 -31 38 -17 77 -34 88 -38 54 -21 124 -44 155
-51 19 -5 52 -13 73 -18 l37 -10 2 92 1 91 7 -85 c11 -124 12 -436 1 -505 -32
-218 121 -433 364 -511 317 -101 667 50 766 332 29 84 23 224 -14 309 -22 53
-128 431 -126 452 0 4 13 -30 29 -77 15 -47 28 -78 29 -69 1 10 18 21 44 29
51 15 63 20 150 59 37 17 72 31 77 31 6 0 10 5 10 10 0 6 7 10 15 10 9 0 27 7
40 16 21 14 28 14 42 3 10 -8 -4 16 -30 54 -27 37 -46 67 -43 67 4 0 375 -485
564 -737 34 -45 77 -93 95 -107 37 -28 52 -33 41 -13 -4 7 -3 9 2 4 5 -5 9
-14 9 -20 0 -17 90 -47 160 -54 40 -4 81 0 123 11 73 18 145 53 137 66 -3 5 0
12 6 16 8 5 9 3 4 -6 -5 -8 -3 -11 6 -8 8 3 13 10 12 16 -1 5 5 16 15 24 15
12 16 11 3 -4 -8 -11 -9 -18 -3 -18 21 0 134 136 162 196 56 116 78 291 49
396 -30 113 -81 187 -174 254 -123 88 -544 427 -540 434 3 5 1 11 -5 15 -8 5
3 38 20 55 3 3 10 16 16 30 6 14 21 45 32 70 12 25 30 72 41 105 11 33 25 59
31 57 24 -5 6 9 -57 47 -38 23 -64 41 -60 41 8 0 280 -153 821 -462 292 -167
314 -179 302 -160 -5 8 -2 10 9 5 12 -4 13 -8 4 -13 -8 -6 -4 -12 12 -20 13
-7 47 -30 74 -50 50 -38 163 -90 196 -90 10 0 21 5 24 10 3 6 14 10 23 9 14 0
13 -2 -3 -9 -13 -6 -3 -7 30 -3 148 15 275 95 364 228 28 42 51 82 51 88 0 6
-16 -16 -36 -49 -47 -79 -135 -166 -205 -204 -31 -16 -61 -30 -65 -30 -5 0 20
16 56 35 109 59 199 163 246 286 21 55 26 52 9 -8 -3 -10 1 -4 10 12 9 18 13
44 10 65 -3 19 -2 30 2 23 4 -6 8 36 8 93 0 57 -3 96 -6 86 -4 -9 -6 3 -6 28
2 66 -43 149 -119 219 -63 57 -113 80 -209 96 -80 14 -760 186 -770 196 -6 6
7 25 35 52 l45 42 -40 -45 -40 -45 42 39 c23 22 40 43 37 47 -3 5 12 26 33 47
25 25 30 28 13 7 l-25 -30 32 29 c18 16 30 32 28 36 -2 4 9 22 25 41 16 19 29
30 30 25 0 -5 7 -3 15 4 8 7 13 16 10 20 -2 4 40 57 95 118 55 61 100 113 100
117 0 4 -34 44 -76 90 -42 46 -75 87 -74 91 3 14 -31 27 -43 15 -29 -29 -22
-3 22 86 125 251 180 523 168 828 -6 141 -35 337 -70 469 l-13 49 -63 -114
c-119 -215 -215 -342 -316 -417 -54 -40 -195 -115 -203 -107 -2 1 5 45 14 96
22 122 22 413 0 727 -17 244 -12 352 19 504 10 47 12 74 5 90 -10 21 -10 20
-5 -5 4 -18 2 -26 -4 -22 -7 4 -9 -6 -6 -27 4 -26 3 -29 -4 -13 -8 15 -9 9 -6
-25 4 -33 2 -38 -4 -20 -6 19 -8 13 -8 -30 1 -81 -15 -301 -21 -295 -8 8 -3
171 7 216 5 23 6 37 1 33 -26 -27 -46 -386 -30 -535 5 -42 11 -108 13 -145 l6
-69 -14 85 c-25 155 -30 389 -11 540 16 125 56 302 89 393 13 36 14 31 15 -90
2 -176 22 -309 89 -578 32 -126 59 -232 60 -234 1 -2 9 2 17 8 11 9 13 19 5
37 -5 14 -9 31 -9 37 1 17 39 -82 46 -120 3 -18 10 -33 14 -33 4 0 41 35 82
78 194 203 268 350 268 534 0 96 -28 264 -51 307 -11 20 -19 55 -19 81 1 44
10 74 150 473 60 169 62 178 45 191 -17 12 -36 -3 -213 -173 -106 -102 -216
-215 -243 -251 -72 -95 -127 -210 -149 -315 -10 -49 -19 -79 -19 -65 0 14 6
54 13 88 8 35 11 82 8 104 l-5 41 -18 -34 c-10 -19 -18 -31 -19 -28 -1 18 89
216 135 299 132 236 243 355 624 676 l25 21 -32 -5 c-18 -2 -35 -9 -39 -15 -4
-7 0 -8 13 -3 24 9 24 8 -136 -129 -69 -59 -102 -85 -75 -59 28 27 81 76 119
110 60 52 69 65 68 93 -2 84 -102 112 -277 76 -114 -23 -238 -60 -357 -106
-105 -41 -281 -129 -274 -137 3 -2 25 8 49 22 51 31 229 108 234 102 2 -2 -10
-9 -27 -16 -20 -8 -29 -18 -26 -27 3 -8 2 -11 -4 -8 -5 3 -8 -4 -7 -15 2 -25
1 -25 72 0 32 11 63 20 69 19 6 0 -38 -18 -99 -39 -60 -22 -153 -61 -207 -88
-54 -27 -98 -48 -98 -46 0 1 4 13 9 27 5 13 12 39 15 58 3 19 14 72 25 119 50
210 63 449 36 633 -35 234 -107 407 -258 620 l-39 55 25 48 c35 70 59 150 67
219 7 58 7 59 9 14 1 -50 -26 -149 -64 -236 -13 -29 -22 -53 -19 -53 10 0 63
127 79 190 17 65 16 93 -4 230 -14 92 -30 151 -82 298 -22 63 -39 115 -37 118
6 6 85 -222 108 -310 11 -44 20 -95 20 -115 0 -20 4 -43 9 -50 6 -10 8 0 5 30
-11 94 -26 151 -96 366 -67 203 -75 222 -95 220 -15 -1 -24 -9 -28 -27 -9 -48
-24 -156 -45 -320 -27 -220 -31 -233 -98 -300 -61 -60 -141 -173 -172 -243
-33 -74 -45 -176 -31 -272 14 -102 53 -241 65 -237 5 2 13 -4 18 -13 8 -13 21
-4 76 56 37 40 98 111 136 158 81 101 82 103 67 74 -9 -17 -9 -28 -1 -44 12
-22 -9 -90 -95 -299 -68 -167 -242 -500 -261 -500 -6 0 2 14 60 113 65 110
126 233 187 378 56 132 111 290 105 296 -2 3 -12 -20 -21 -49 -53 -162 -169
-426 -250 -568 -62 -109 -146 -240 -154 -240 -4 0 -22 28 -41 63 -18 34 -67
111 -108 171 l-73 110 25 105 c119 497 135 800 56 1119 -15 64 -31 145 -34
179 -11 121 -66 214 -241 408 -65 72 -153 177 -196 235 -210 281 -332 655
-362 1115 -3 44 -4 42 -7 -20 l-3 -70 -8 85 c-4 47 -7 118 -8 158 -1 41 -5 72
-11 72 -6 0 -5 8 2 20 11 18 14 5 19 -87 l5 -108 2 123 c1 67 1 122 0 122 -2
0 -58 -73 -125 -163z m15 -14 c-309 -407 -475 -749 -557 -1148 -16 -77 -30
-132 -30 -123 -2 41 55 285 97 413 56 170 179 421 293 595 87 133 261 371 268
364 2 -2 -30 -47 -71 -101z m-674 -60 c-37 -50 -214 -253 -221 -253 -2 0 30
39 71 86 42 48 97 115 123 149 27 34 50 61 52 59 2 -2 -9 -20 -25 -41z m46 5
c-5 -18 -18 -77 -30 -131 -12 -54 -24 -96 -26 -94 -4 4 39 210 51 245 9 26 13
10 5 -20z m747 -225 c-2 -16 -4 -5 -4 22 0 28 2 40 4 28 2 -13 2 -35 0 -50z
m-822 -88 c-23 -85 -31 -78 -9 9 9 37 19 65 22 62 2 -3 -4 -35 -13 -71z m853
-110 c0 -11 -6 9 -14 45 -7 36 -13 79 -12 95 0 17 6 -4 13 -45 8 -41 13 -84
13 -95z m-894 -39 c-9 -37 -18 -65 -21 -63 -2 3 4 34 13 71 9 37 18 65 21 63
2 -3 -4 -34 -13 -71z m986 -291 c87 -244 196 -414 435 -675 163 -179 221 -279
232 -397 3 -37 18 -117 33 -178 38 -151 54 -310 47 -469 -6 -139 -29 -318 -53
-407 -16 -63 -12 -23 10 101 51 286 45 566 -19 795 -14 50 -25 108 -25 130 0
50 -21 128 -48 181 -26 52 -84 125 -187 239 -229 254 -326 399 -415 623 -40
100 -101 316 -99 350 0 9 13 -32 29 -93 15 -60 42 -150 60 -200z m-1024 126
c-8 -45 -17 -85 -21 -89 -4 -4 -4 4 -1 18 2 14 10 56 17 93 6 37 13 66 15 64
3 -2 -2 -41 -10 -86z m25 -223 c11 -14 19 -30 19 -34 0 -18 -49 65 -55 92 l-5
29 11 -30 c7 -16 20 -42 30 -57z m53 -180 c15 -75 25 -155 24 -195 l-1 -68 -7
90 c-4 50 -17 134 -29 187 -11 54 -21 103 -21 109 0 30 10 -6 34 -123z m56
-341 c0 -5 -4 -5 -10 -2 -5 3 -10 14 -10 23 0 15 2 15 10 2 5 -8 10 -19 10
-23z m2219 -247 c0 -9 -4 -8 -9 5 -5 11 -9 27 -9 35 0 9 4 8 9 -5 5 -11 9 -27
9 -35z m-3337 12 c-6 -2 -5 -22 4 -55 25 -94 93 -440 98 -507 4 -36 -7 10 -23
102 -17 92 -46 236 -66 320 -40 176 -40 175 -19 157 9 -7 12 -15 6 -17z m3285
-4 c-3 -7 -5 -2 -5 12 0 14 2 19 5 13 2 -7 2 -19 0 -25z m-10 -60 c-3 -7 -5
-2 -5 12 0 14 2 19 5 13 2 -7 2 -19 0 -25z m-10 -75 c-3 -10 -5 -4 -5 12 0 17
2 24 5 18 2 -7 2 -21 0 -30z m-10 -90 c-3 -10 -5 -2 -5 17 0 19 2 27 5 18 2
-10 2 -26 0 -35z m-10 -75 c-3 -7 -5 -2 -5 12 0 14 2 19 5 13 2 -7 2 -19 0
-25z m-10 -90 c-3 -7 -5 -2 -5 12 0 14 2 19 5 13 2 -7 2 -19 0 -25z m-2107
-205 c-45 -152 -118 -328 -267 -638 -72 -148 -146 -313 -166 -365 -36 -98 -86
-265 -88 -297 -1 -15 -2 -15 -6 -2 -5 21 38 176 84 299 19 52 92 212 160 355
69 143 145 307 170 365 49 116 117 316 129 376 4 21 9 33 12 26 2 -7 -10 -61
-28 -119z m-1013 -95 c-2 -13 -4 -3 -4 22 0 25 2 35 4 23 2 -13 2 -33 0 -45z
m3330 -316 c102 -150 194 -373 207 -502 6 -53 5 -52 -9 14 -35 167 -113 348
-211 489 -30 42 -51 77 -47 77 5 0 32 -35 60 -78z m-3320 -59 c-12 -194 -74
-358 -172 -456 -30 -30 -71 -62 -90 -71 -43 -21 -63 -52 -159 -243 -87 -174
-96 -194 -147 -333 -21 -58 -38 -100 -38 -93 -2 42 117 323 219 517 67 128 74
136 124 164 145 82 238 271 253 515 3 53 8 97 11 97 3 0 2 -44 -1 -97z m3190
7 c-7 -17 -13 -26 -15 -21 -3 10 15 51 22 51 3 0 -1 -14 -7 -30z m-632 -310
c-4 -17 -9 -30 -11 -27 -2 2 -1 18 2 36 4 17 9 30 11 27 3 -2 2 -19 -2 -36z
m-2168 -332 c-2 -29 -3 -6 -3 52 0 58 1 81 3 53 2 -29 2 -77 0 -105z m3158
-133 c-3 -82 -10 -170 -15 -195 -6 -33 -7 -24 -2 35 4 44 7 159 7 255 -1 137
1 162 8 115 4 -33 6 -127 2 -210z m-3142 -50 c3 -78 2 -101 -3 -65 -8 57 -13
197 -6 189 2 -2 6 -58 9 -124z m64 -72 c-3 -10 -5 -4 -5 12 0 17 2 24 5 18 2
-7 2 -21 0 -30z m3033 -239 c-12 -52 -24 -94 -26 -91 -2 2 6 49 19 105 12 57
23 98 25 92 2 -5 -6 -53 -18 -106z m-3062 -29 c-1 -39 -1 -39 -8 10 -5 28 -8
66 -8 85 0 32 1 31 9 -10 4 -25 7 -63 7 -85z m3509 9 c-3 -3 -12 -4 -19 -1 -8
3 -5 6 6 6 11 1 17 -2 13 -5z m-40 -10 c-3 -3 -12 -4 -19 -1 -8 3 -5 6 6 6 11
1 17 -2 13 -5z m-4528 -103 c-7 -23 -14 -39 -16 -37 -3 2 1 23 8 45 7 23 14
39 16 37 3 -2 -1 -23 -8 -45z m-25 -95 c-3 -21 -8 -35 -11 -32 -2 2 -1 20 3
40 3 21 8 35 11 32 2 -2 1 -20 -3 -40z m-17 -68 c-3 -8 -6 -5 -6 6 -1 11 2 17
5 13 3 -3 4 -12 1 -19z m5003 -11 c0 -1 -48 -50 -107 -107 l-108 -105 100 106
c86 92 115 118 115 106z m-5013 -44 c-3 -10 -5 -4 -5 12 0 17 2 24 5 18 2 -7
2 -21 0 -30z m5024 10 c-8 -15 -10 -15 -11 -2 0 17 10 32 18 25 2 -3 -1 -13
-7 -23z m-31 -98 c-12 -36 -24 -65 -26 -63 -2 2 6 34 18 71 12 36 24 65 26 62
2 -2 -6 -34 -18 -70z m-5003 28 c-3 -10 -5 -4 -5 12 0 17 2 24 5 18 2 -7 2
-21 0 -30z m-10 -80 c-3 -10 -5 -2 -5 17 0 19 2 27 5 18 2 -10 2 -26 0 -35z
m4967 -77 c-9 -26 -18 -45 -20 -43 -2 2 3 25 12 51 9 26 18 45 20 43 2 -2 -3
-25 -12 -51z m-4977 22 c-3 -8 -6 -5 -6 6 -1 11 2 17 5 13 3 -3 4 -12 1 -19z
m4942 -117 c-6 -18 -13 -30 -15 -28 -2 2 1 18 7 36 6 18 13 30 15 28 2 -2 -1
-18 -7 -36z m-28 -68 c-12 -20 -14 -14 -5 12 4 9 9 14 11 11 3 -2 0 -13 -6
-23z m-54 -165 c-3 -8 -6 -5 -6 6 -1 11 2 17 5 13 3 -3 4 -12 1 -19z m-430
-340 c-3 -8 -6 -5 -6 6 -1 11 2 17 5 13 3 -3 4 -12 1 -19z m480 0 c-3 -8 -6
-5 -6 6 -1 11 2 17 5 13 3 -3 4 -12 1 -19z m10 -150 c-2 -18 -4 -6 -4 27 0 33
2 48 4 33 2 -15 2 -42 0 -60z m-480 0 c-3 -8 -6 -5 -6 6 -1 11 2 17 5 13 3 -3
4 -12 1 -19z m10 -80 c-3 -8 -6 -5 -6 6 -1 11 2 17 5 13 3 -3 4 -12 1 -19z
m10 -60 c-3 -8 -6 -5 -6 6 -1 11 2 17 5 13 3 -3 4 -12 1 -19z m-160 -110 c-2
-13 -4 -5 -4 17 -1 22 1 32 4 23 2 -10 2 -28 0 -40z m190 -40 c-3 -8 -6 -5 -6
6 -1 11 2 17 5 13 3 -3 4 -12 1 -19z m10 -40 c-3 -8 -6 -5 -6 6 -1 11 2 17 5
13 3 -3 4 -12 1 -19z m22 -68 c0 -9 -4 -8 -9 5 -5 11 -9 27 -9 35 0 9 4 8 9
-5 5 -11 9 -27 9 -35z m-221 -305 c0 -16 -2 -15 -8 5 -4 14 -8 36 -8 50 0 22
1 22 8 -5 4 -16 8 -39 8 -50z m10 -150 c0 -22 -3 -18 -9 15 -4 25 -7 59 -7 75
0 22 3 18 9 -15 4 -25 7 -58 7 -75z m-5281 -1901 c-3 -3 -12 -4 -19 -1 -8 3
-5 6 6 6 11 1 17 -2 13 -5z m6050 0 c-3 -3 -12 -4 -19 -1 -8 3 -5 6 6 6 11 1
17 -2 13 -5z m-6120 -20 c-3 -3 -12 -4 -19 -1 -8 3 -5 6 6 6 11 1 17 -2 13 -5z
m-52 -14 c-11 -5 -27 -9 -35 -9 -9 0 -8 4 5 9 11 5 27 9 35 9 9 0 8 -4 -5 -9z
m-58 -16 c-3 -3 -12 -4 -19 -1 -8 3 -5 6 6 6 11 1 17 -2 13 -5z m-40 -10 c-3
-3 -12 -4 -19 -1 -8 3 -5 6 6 6 11 1 17 -2 13 -5z m6724 -101 c15 -15 34 -41
43 -58 17 -29 17 -29 0 -5 -10 14 -38 45 -62 69 -25 23 -36 38 -26 33 11 -6
31 -23 45 -39z m80 -119 c5 -15 8 -29 5 -31 -2 -2 -8 10 -14 26 -13 38 -5 41
9 5z m-1911 -209 c-7 -8 -18 -15 -24 -15 -6 0 -3 5 7 11 9 5 18 20 18 32 1 18
2 18 6 4 3 -10 -1 -24 -7 -32z m-73 -31 c-3 -3 -12 -4 -19 -1 -8 3 -5 6 6 6
11 1 17 -2 13 -5z m21 -92 c18 -14 31 -27 28 -29 -2 -3 -34 19 -70 48 -71 56
-90 80 -28 33 20 -15 52 -39 70 -52z m1627 -372 c-11 -5 -31 -8 -45 -8 -23 0
-22 1 5 8 42 11 65 11 40 0z m-2274 -87 c13 -16 12 -17 -3 -4 -10 7 -18 15
-18 17 0 8 8 3 21 -13z m-3151 -57 c0 -2 -8 -10 -17 -17 -16 -13 -17 -12 -4 4
13 16 21 21 21 13z m-815 -66 c-3 -5 -12 -10 -18 -10 -7 0 -6 4 3 10 19 12 23
12 15 0z m-45 -20 c-8 -5 -22 -9 -30 -9 -10 0 -8 3 5 9 27 12 43 12 25 0z
m587 -222 c-3 -8 -6 -5 -6 6 -1 11 2 17 5 13 3 -3 4 -12 1 -19z m-10 -90 c-2
-13 -4 -5 -4 17 -1 22 1 32 4 23 2 -10 2 -28 0 -40z m10 -80 c-3 -7 -5 -2 -5
12 0 14 2 19 5 13 2 -7 2 -19 0 -25z m4083 -293 c19 -19 32 -35 29 -35 -3 0
-20 16 -39 35 -19 19 -32 35 -29 35 3 0 20 -16 39 -35z m387 -91 c-3 -3 -12
-4 -19 -1 -8 3 -5 6 6 6 11 1 17 -2 13 -5z m-40 -10 c-3 -3 -12 -4 -19 -1 -8
3 -5 6 6 6 11 1 17 -2 13 -5z m-4087 -50 c0 -7 -58 25 -65 36 -3 5 10 1 29
-11 20 -12 36 -23 36 -25z m4023 39 c-13 -2 -35 -2 -50 0 -16 2 -5 4 22 4 28
0 40 -2 28 -4z m-3866 -99 c-3 -3 -12 -4 -19 -1 -8 3 -5 6 6 6 11 1 17 -2 13
-5z m66 -11 c-7 -2 -21 -2 -30 0 -10 3 -4 5 12 5 17 0 24 -2 18 -5z m120 0
c-7 -2 -21 -2 -30 0 -10 3 -4 5 12 5 17 0 24 -2 18 -5z m2387 -56 c0 -2 -10
-12 -22 -23 l-23 -19 19 23 c18 21 26 27 26 19z m-809 -24 c13 -16 12 -17 -3
-4 -10 7 -18 15 -18 17 0 8 8 3 21 -13z"/>
<path d="M4372 11850 c0 -14 2 -19 5 -12 2 6 2 18 0 25 -3 6 -5 1 -5 -13z"/>
<path d="M4362 11800 c0 -14 2 -19 5 -12 2 6 2 18 0 25 -3 6 -5 1 -5 -13z"/>
<path d="M4354 11645 c0 -66 1 -92 3 -57 2 34 2 88 0 120 -2 31 -3 3 -3 -63z"/>
<path d="M4362 11485 c0 -16 2 -22 5 -12 2 9 2 23 0 30 -3 6 -5 -1 -5 -18z"/>
<path d="M4372 11410 c0 -19 2 -27 5 -17 2 9 2 25 0 35 -3 9 -5 1 -5 -18z"/>
<path d="M4382 11350 c0 -14 2 -19 5 -12 2 6 2 18 0 25 -3 6 -5 1 -5 -13z"/>
<path d="M4392 11300 c0 -14 2 -19 5 -12 2 6 2 18 0 25 -3 6 -5 1 -5 -13z"/>
<path d="M4401 11254 c0 -11 3 -14 6 -6 3 7 2 16 -1 19 -3 4 -6 -2 -5 -13z"/>
<path d="M6771 10189 c-6 -18 -9 -34 -7 -36 2 -2 9 10 15 28 6 18 9 34 7 36
-2 2 -9 -10 -15 -28z"/>
<path d="M6751 10124 c0 -11 3 -14 6 -6 3 7 2 16 -1 19 -3 4 -6 -2 -5 -13z"/>
<path d="M6742 10080 c0 -14 2 -19 5 -12 2 6 2 18 0 25 -3 6 -5 1 -5 -13z"/>
<path d="M6734 9960 c0 -52 1 -74 3 -47 2 26 2 68 0 95 -2 26 -3 4 -3 -48z"/>
<path d="M6742 9840 c0 -14 2 -19 5 -12 2 6 2 18 0 25 -3 6 -5 1 -5 -13z"/>
<path d="M7063 9733 c-127 -150 -161 -182 -173 -163 -11 17 -13 0 -4 -25 5
-12 23 3 80 63 90 97 202 232 192 232 -2 0 -45 -48 -95 -107z"/>
<path d="M6761 9764 c0 -11 3 -14 6 -6 3 7 2 16 -1 19 -3 4 -6 -2 -5 -13z"/>
<path d="M6772 9715 c0 -16 2 -22 5 -12 2 9 2 23 0 30 -3 6 -5 -1 -5 -18z"/>
<path d="M7601 7494 c0 -11 3 -14 6 -6 3 7 2 16 -1 19 -3 4 -6 -2 -5 -13z"/>
<path d="M1661 4184 c0 -11 3 -14 6 -6 3 7 2 16 -1 19 -3 4 -6 -2 -5 -13z"/>
<path d="M1652 4140 c0 -14 2 -19 5 -12 2 6 2 18 0 25 -3 6 -5 1 -5 -13z"/>
<path d="M8961 4114 c0 -11 3 -14 6 -6 3 7 2 16 -1 19 -3 4 -6 -2 -5 -13z"/>
<path d="M1643 4025 c0 -38 2 -53 4 -32 2 20 2 52 0 70 -2 17 -4 1 -4 -38z"/>
<path d="M1652 3905 c0 -16 2 -22 5 -12 2 9 2 23 0 30 -3 6 -5 -1 -5 -18z"/>
<path d="M1661 3854 c0 -11 3 -14 6 -6 3 7 2 16 -1 19 -3 4 -6 -2 -5 -13z"/>
<path d="M1680 3785 c0 -5 5 -17 10 -25 5 -8 10 -10 10 -5 0 6 -5 17 -10 25
-5 8 -10 11 -10 5z"/>
<path d="M1755 3623 c40 -63 99 -134 138 -166 46 -37 128 -87 143 -87 5 0 -18
16 -52 35 -71 40 -152 117 -201 191 -36 55 -60 77 -28 27z"/>
<path d="M2088 3353 c7 -3 16 -2 19 1 4 3 -2 6 -13 5 -11 0 -14 -3 -6 -6z"/>
<path d="M3750 2555 c-8 -9 -8 -15 -2 -15 12 0 26 19 19 26 -2 2 -10 -2 -17
-11z"/>
</g>
</svg>
